<svg width="25" height="24" viewBox="0 0 25 24" fill="none" xmlns="http://www.w3.org/2000/svg">
<path d="M6.33325 2L3.33325 6V20C3.33325 20.5304 3.54397 21.0391 3.91904 21.4142C4.29411 21.7893 4.80282 22 5.33325 22H19.3333C19.8637 22 20.3724 21.7893 20.7475 21.4142C21.1225 21.0391 21.3333 20.5304 21.3333 20V6L18.3333 2H6.33325Z" stroke="#FCFCFC" stroke-width="2" stroke-linecap="round" stroke-linejoin="round"/>
<path d="M3.33325 6H21.3333" stroke="#FCFCFC" stroke-width="2" stroke-linecap="round" stroke-linejoin="round"/>
<path d="M16.3333 10C16.3333 11.0609 15.9118 12.0783 15.1617 12.8284C14.4115 13.5786 13.3941 14 12.3333 14C11.2724 14 10.255 13.5786 9.50482 12.8284C8.75468 12.0783 8.33325 11.0609 8.33325 10" stroke="#FCFCFC" stroke-width="2" stroke-linecap="round" stroke-linejoin="round"/>
</svg>
